<?xml version="1.0" encoding="UTF-8"?>
<!DOCTYPE svg PUBLIC "-//W3C//DTD SVG 1.1//EN" "http://www.w3.org/Graphics/SVG/1.1/DTD/svg11.dtd">
<!-- Creator: CorelDRAW X7 -->
<svg xmlns="http://www.w3.org/2000/svg" xml:space="preserve" width="11.8532mm" height="11.8532mm" version="1.1" style="shape-rendering:geometricPrecision; text-rendering:geometricPrecision; image-rendering:optimizeQuality; fill-rule:evenodd; clip-rule:evenodd"
viewBox="0 0 1185 1185"
 xmlns:xlink="http://www.w3.org/1999/xlink">
 <defs>
  <style type="text/css">
   <![CDATA[
    .fil0 {fill:#333333}
    .fil1 {fill:white;fill-rule:nonzero}
   ]]>
  </style>
 </defs>
 <g id="Слой_x0020_1">
  <metadata id="CorelCorpID_0Corel-Layer"/>
  <circle class="fil0" cx="593" cy="593" r="593"/>
  <path class="fil1" d="M340 626l0 0 0 0 -1 -1 0 0 0 0 -1 0 0 -1 0 0 0 0 -1 -1 0 0 -1 0 0 -1 0 0 0 0 0 0 -1 -1 0 0 0 0 0 -1 -1 0 0 0 0 -1 -1 0 0 0 0 0 0 -1 0 0 -1 0 0 -1 0 0 0 0 0 -1 -1 0 0 0 0 -1 0 0 0 0 -1 -1 0 0 0 0 0 -1 0 0 -1 0 0 -1 0 0 0 -1 0 0 0 0 0 -1 -1 -1 0 -1 0 0 -1 -1 0 0 0 -1 0 0 0 0 0 -1 0 0 -1 -1 0 -1 0 -2 0 0 -1 -1 0 0 0 -2 0 0 0 0 0 -1 0 0 0 -1 0 0 0 0 0 -2 0 0 0 -1 0 0 0 -1 0 0 0 -3 0 0 0 -1 0 0 0 -3 1 0 0 -1 0 0 0 -1c0,-1 0,-2 1,-3l0 -1 0 0 0 -1 0 0 1 -1 0 0 0 -1 0 -1 1 0 0 -1 0 0 0 -1 0 0 1 -1 0 0 0 -1 0 0 1 0 0 -1 0 0 1 -1 0 0 0 -1 0 0 1 -1 0 0 1 -1 0 -1 0 0 1 0 0 -1 1 0 0 -1 0 0 1 -1 0 0 1 -1 140 -140c18,-18 46,-18 63,0 17,17 17,45 0,63l-64 64 371 0c24,0 44,20 44,45 0,24 -20,44 -44,44l-372 0 65 65c17,17 17,45 0,62 -17,18 -45,18 -63,0l-138 -138 0 0 0 0z"/>
 </g>
</svg>
