<?xml version="1.0" encoding="utf-8"?>
<!-- Generator: Adobe Illustrator 18.1.1, SVG Export Plug-In . SVG Version: 6.00 Build 0)  -->
<svg version="1.1" id="Шар_1" xmlns="http://www.w3.org/2000/svg" xmlns:xlink="http://www.w3.org/1999/xlink" x="0px" y="0px"
	 viewBox="-288 380.4 33.6 33.6" enable-background="new -288 380.4 33.6 33.6" xml:space="preserve">
<g id="Слой_x0020_1">
	<path fill="#E5395A" d="M-271.2,414c-9.3,0-16.8-7.5-16.8-16.8c0-9.3,7.5-16.8,16.8-16.8c9.3,0,16.8,7.5,16.8,16.8
		C-254.4,406.5-261.9,414-271.2,414z M-281.3,407.3c2.6,2.6,6.2,4.2,10.1,4.2s7.5-1.6,10.1-4.2s4.2-6.2,4.2-10.1s-1.6-7.5-4.2-10.1
		c-2.6-2.6-6.2-4.2-10.1-4.2s-7.5,1.6-10.1,4.2c-2.6,2.6-4.2,6.2-4.2,10.1S-283.9,404.7-281.3,407.3z"/>
	<path fill="#E5395A" d="M-278.4,398.2L-278.4,398.2L-278.4,398.2L-278.4,398.2L-278.4,398.2L-278.4,398.2L-278.4,398.2
		L-278.4,398.2L-278.4,398.2L-278.4,398.2L-278.4,398.2L-278.4,398.2l-0.1-0.1v0l0,0l0,0l0,0l0,0l0,0l0,0v0h0l0,0v0h0l0,0l0,0v0l0,0
		h0v0l0,0l0,0v0h0l0,0v0l0,0l0,0l0,0l0,0l0,0v0l0,0h0v0l0,0v0l0,0l0,0v0l0,0v0l0,0l0,0l0,0v0l0,0l0,0v0l0,0l0,0v0v-0.1l0,0l0,0l0,0
		v-0.1l0,0l0,0v0l0,0v0l0,0l0,0v-0.1l0,0v0l0,0v0l0,0v-0.1l0,0v0l0,0V397h0v0l0,0v0c0,0,0-0.1,0-0.1v0l0,0v0l0,0l0,0l0,0v0v0h0v0
		l0,0v0l0,0l0,0l0,0v0l0,0h0v0l0,0l0,0l0,0v0l0,0l0,0l0,0l0,0v0l0,0h0v0h0v0l0,0l0,0l0,0l0,0l4-4c0.5-0.5,1.3-0.5,1.8,0
		c0.5,0.5,0.5,1.3,0,1.8l-1.8,1.8h10.5c0.7,0,1.2,0.6,1.2,1.3c0,0.7-0.6,1.2-1.2,1.2h-10.5l1.8,1.8c0.5,0.5,0.5,1.3,0,1.8
		c-0.5,0.5-1.3,0.5-1.8,0L-278.4,398.2L-278.4,398.2z"/>
</g>
</svg>
