<?xml version="1.0" encoding="UTF-8"?>
<!DOCTYPE svg PUBLIC "-//W3C//DTD SVG 1.1//EN" "http://www.w3.org/Graphics/SVG/1.1/DTD/svg11.dtd">
<!-- Creator: CorelDRAW X7 -->
<svg xmlns="http://www.w3.org/2000/svg" xml:space="preserve" width="56.7266mm" height="22.0132mm" version="1.1" style="shape-rendering:geometricPrecision; text-rendering:geometricPrecision; image-rendering:optimizeQuality; fill-rule:evenodd; clip-rule:evenodd"
viewBox="0 0 5673 2201"
 xmlns:xlink="http://www.w3.org/1999/xlink">
 <defs>
  <style type="text/css">
   <![CDATA[
    .fil1 {fill:#4E6CE9;fill-rule:nonzero}
    .fil0 {fill:#FEFEFE;fill-rule:nonzero}
   ]]>
  </style>
 </defs>
 <g id="Слой_x0020_1">
  <metadata id="CorelCorpID_0Corel-Layer"/>
  <path class="fil0" d="M1427 534c0,-205 -157,-286 -312,-284 -154,1 -309,75 -309,284 0,209 152,285 307,285 157,0 314,-80 314,-285zm4217 150l-27 0c-15,0 -28,-12 -28,-27l0 -604c0,-15 -13,-28 -29,-28l-174 0c-16,0 -29,13 -29,28l0 78c0,16 13,29 29,29l27 0c15,0 28,11 28,27l0 603c0,16 11,29 27,29l65 0 27 0 29 0 55 0c16,0 29,-13 29,-29l0 -78c0,-16 -13,-28 -29,-28zm-1938 -57l-78 0c-15,0 -28,13 -28,29l0 25 -245 0c-15,0 -28,-13 -28,-29l0 -599c0,-15 -13,-28 -29,-28l-176 0c-16,0 -28,13 -28,28l0 78c0,16 12,29 28,29l27 0c16,0 29,11 29,27l0 603c0,16 12,29 28,29l500 0c16,0 29,-13 29,-29l0 -79 0 -2 0 -53c0,-16 -13,-29 -29,-29zm-3302 -601l-106 134 74 0c191,0 192,287 0,287l-196 0c-14,0 -27,-11 -27,-27l0 -72 -149 189 0 253c0,16 11,29 27,29l94 0c16,0 28,-13 28,-29l0 -179c0,-16 13,-28 27,-28l196 0c379,0 388,-527 32,-557zm4845 659l-27 0c-7,0 -14,-3 -20,-8l-262 -262c-11,-12 -11,-29 0,-40l303 -303c17,-17 4,-49 -20,-49l-132 0c-7,0 -14,3 -20,9l-304 304c-10,10 -24,3 -24,-10l0 -273c0,-15 -13,-28 -29,-28l-176 0c-15,0 -28,13 -28,28l0 78c0,16 13,29 28,29l27 0c16,0 29,11 29,27l0 603c0,16 11,29 27,29l93 0c16,0 29,-13 29,-29l0 -206c0,-7 3,-14 7,-20l45 -44c10,-11 29,-11 40,0l290 290c5,6 12,9 20,9l104 0c16,0 28,-13 28,-29l0 -78c0,-14 -12,-27 -28,-27zm-1102 -353c-95,-11 -178,-31 -178,-99 0,-60 54,-107 165,-107 76,0 143,34 175,72 9,9 23,12 34,6l73 -37c14,-7 18,-27 10,-41 -66,-100 -182,-130 -296,-130 -146,2 -307,69 -307,231 0,178 149,222 311,240 106,12 184,43 184,117 0,87 -88,120 -182,120 -87,0 -171,-32 -212,-101 -7,-13 -24,-19 -37,-12l-75 39c-15,7 -20,24 -13,38 62,125 182,169 334,169 176,0 333,-75 333,-253 0,-189 -154,-232 -319,-252zm-2760 -183l-538 0c-17,0 -29,-15 -29,-30l0 -80c0,-17 12,-30 29,-30l538 0c15,0 28,13 28,30l0 80c0,15 -13,30 -28,30zm1600 0l-537 0c-17,0 -30,-15 -30,-30l0 -80c0,-17 13,-30 30,-30l537 0c16,0 28,13 28,30l0 80c0,15 -12,30 -28,30zm41 385c0,-205 -158,-286 -313,-284 -153,1 -308,75 -308,284 0,209 152,285 307,285 156,0 314,-80 314,-285zm-136 0l0 0c0,117 -94,148 -178,145 -82,-1 -169,-28 -169,-145 0,-116 88,-143 169,-145 84,-1 178,29 178,145zm-917 -502l-106 135 19 0c172,0 245,124 249,248 3,128 -68,260 -249,260l-135 0c-16,0 -28,-13 -28,-28l0 -297 -148 187 0 253c0,16 12,29 28,29l283 0c277,0 400,-204 397,-404 -4,-173 -99,-345 -310,-383zm-684 502l0 0c0,117 -94,148 -178,145 -82,-1 -169,-28 -169,-145 0,-116 88,-143 169,-145 84,-1 178,29 178,145z"/>
  <path class="fil1" d="M5303 1214c0,-31 -26,-56 -57,-56l-4818 0c-31,0 -56,25 -56,56l0 931c0,31 25,56 56,56l4818 0c31,0 57,-25 57,-56l0 -931zm-4037 807l0 0 -239 0c-13,0 -24,-11 -24,-25l0 -505c0,-14 -11,-21 -24,-21l-23 0c-13,0 -26,-14 -26,-27l0 -67c0,-14 13,-21 26,-21l310 0c230,0 332,163 336,327 2,169 -101,339 -336,339zm985 -580l0 0c0,14 -8,21 -22,21l-329 0c-13,0 -27,13 -27,26l0 118c0,13 14,20 27,20l280 0c12,0 21,14 21,28l0 66c0,13 -9,21 -21,21l-280 0c-13,0 -27,12 -27,25l0 118c0,13 14,22 27,22l329 0c14,0 22,12 22,24l0 66c0,14 -8,25 -22,25l-454 0c-13,0 -25,-11 -25,-25l0 -508c0,-13 -10,-26 -23,-26l-23 0c-13,0 -20,-7 -20,-21l0 -65c0,-14 7,-21 20,-21l525 0c14,0 22,7 22,21l0 65zm406 595l0 0c-128,0 -229,-37 -282,-143 -6,-12 -1,-26 11,-32l63 -32c11,-6 26,-2 32,9 34,59 105,85 179,85 79,0 154,-27 154,-100 0,-63 -67,-89 -156,-99 -137,-15 -263,-52 -263,-202 0,-137 136,-193 260,-194 96,0 195,25 250,109 7,12 4,28 -8,34l-62 32c-9,4 -21,2 -29,-5 -27,-33 -84,-61 -148,-61 -93,0 -139,39 -139,90 0,57 70,74 150,83 140,17 270,53 270,213 0,149 -133,213 -282,213zm578 -40l0 0c0,14 -15,25 -28,25l-78 0c-14,0 -25,-11 -25,-25l0 -508c0,-13 -9,-26 -22,-26l-23 0c-13,0 -21,-7 -21,-21l0 -65c0,-14 8,-21 21,-21l148 0c13,0 28,7 28,21l0 620zm747 -153l0 0 0 72 0 81c0,12 -13,25 -26,25l-77 0c-8,0 -12,-7 -12,-14l0 -1c0,-4 -5,-7 -9,-5 -42,19 -90,34 -145,34 -253,0 -355,-166 -355,-341 0,-188 118,-362 355,-362 82,0 163,29 229,85 11,9 11,24 2,34l-46 48c-9,8 -22,8 -31,1 -45,-33 -103,-53 -154,-53 -144,0 -231,110 -231,247 0,109 64,223 231,223 49,0 94,-9 144,-46 6,-4 10,-11 10,-18l0 -84c0,-14 -14,-19 -27,-19l-124 0c-13,0 -21,-15 -21,-28l0 -66c0,-13 8,-21 21,-21l240 0c13,0 26,8 26,21l0 187zm738 153l0 0c0,14 -15,25 -29,25l-43 0c-7,0 -13,-4 -18,-10l-324 -412c-6,-10 -21,-5 -21,7l0 390c0,14 -11,25 -23,25l-80 0c-14,0 -20,-11 -20,-25l0 -508c0,-13 -14,-26 -27,-26l-23 0c-13,0 -24,-7 -24,-21l0 -65c0,-14 11,-21 24,-21l137 0c7,0 14,2 19,8l299 378c8,9 22,4 22,-8l0 -357c0,-14 11,-21 24,-21l78 0c14,0 29,7 29,21l0 620z"/>
  <path class="fil1" d="M1266 1470l-114 0c-13,0 -25,12 -25,25l0 380c0,13 12,22 25,22l114 0c153,0 213,-111 211,-219 -4,-104 -65,-208 -211,-208z"/>
 </g>
</svg>
