<?xml version="1.0" encoding="UTF-8"?>
<!DOCTYPE svg PUBLIC "-//W3C//DTD SVG 1.1//EN" "http://www.w3.org/Graphics/SVG/1.1/DTD/svg11.dtd">
<!-- Creator: CorelDRAW X7 -->
<svg xmlns="http://www.w3.org/2000/svg" xml:space="preserve" width="26.2466mm" height="10.3292mm" version="1.1" style="shape-rendering:geometricPrecision; text-rendering:geometricPrecision; image-rendering:optimizeQuality; fill-rule:evenodd; clip-rule:evenodd"
viewBox="0 0 2625 1033"
 xmlns:xlink="http://www.w3.org/1999/xlink">
 <defs>
  <style type="text/css">
   <![CDATA[
    .fil0 {fill:#2F2929;fill-rule:nonzero}
    .fil1 {fill:#4E6CE9;fill-rule:nonzero}
   ]]>
  </style>
 </defs>
 <g id="Слой_x0020_1">
  <metadata id="CorelCorpID_0Corel-Layer"/>
  <path class="fil0" d="M659 251c0,-96 -73,-134 -145,-133 -71,1 -143,35 -143,133 0,98 70,133 142,133 73,0 146,-37 146,-133zm1955 70l-12 0c-7,0 -13,-6 -13,-13l0 -282c0,-7 -6,-13 -14,-13l-81 0c-7,0 -13,6 -13,13l0 37c0,7 6,13 13,13l13 0c7,0 13,6 13,13l0 281c0,8 5,14 12,14l31 0 12 0 14 0 25 0c7,0 13,-6 13,-14l0 -36c0,-7 -6,-13 -13,-13l0 0 0 0zm-899 -27l-36 0c-7,0 -13,6 -13,14l0 12 -113 0c-7,0 -13,-6 -13,-14l0 -280c0,-7 -6,-13 -14,-13l-81 0c-8,0 -13,6 -13,13l0 37c0,7 5,13 13,13l12 0c8,0 14,6 14,13l0 281c0,8 5,14 13,14l231 0c8,0 14,-6 14,-14l0 -36 0 -1 0 -25c0,-8 -6,-14 -14,-14l0 0 0 0zm-1530 -280l-50 62 35 0c88,0 89,134 0,134l-91 0c-7,0 -13,-5 -13,-12l0 -34 -69 88 0 118c0,8 5,14 13,14l43 0c8,0 13,-6 13,-14l0 -83c0,-8 6,-13 13,-13l91 0c175,0 180,-246 15,-260l0 0 0 0zm2246 307l-13 0c-3,0 -6,-1 -9,-3l-121 -123c-5,-5 -5,-13 0,-18l140 -142c8,-8 2,-23 -9,-23l-61 0c-4,0 -7,2 -10,5l-141 142c-4,4 -11,1 -11,-5l0 -128c0,-7 -6,-13 -13,-13l-82 0c-7,0 -13,6 -13,13l0 37c0,7 6,13 13,13l13 0c7,0 13,6 13,13l0 281c0,8 5,14 13,14l43 0c7,0 13,-6 13,-14l0 -96c0,-3 2,-6 4,-9l20 -21c5,-5 14,-5 19,0l134 136c3,3 6,4 10,4l48 0c7,0 13,-6 13,-14l0 -36c0,-6 -6,-13 -13,-13l0 0 0 0zm-511 -164c-44,-5 -83,-15 -83,-47 0,-28 25,-49 77,-49 35,0 66,15 81,33 4,4 11,6 16,3l34 -17c6,-4 8,-13 4,-19 -30,-47 -84,-61 -137,-61 -68,1 -142,32 -142,108 0,83 69,103 144,112 49,5 85,20 85,54 0,41 -41,56 -84,56 -40,0 -79,-15 -98,-47 -4,-6 -12,-9 -18,-5l-34 18c-7,3 -10,11 -6,18 28,58 84,78 154,78 82,0 155,-35 155,-118 0,-88 -72,-108 -148,-117l0 0 0 0zm-1280 -86l-249 0c-8,0 -14,-7 -14,-14l0 -37c0,-8 6,-14 14,-14l249 0c7,0 13,6 13,14l0 37c0,7 -6,14 -13,14zm742 0l-249 0c-8,0 -14,-7 -14,-14l0 -37c0,-8 6,-14 14,-14l249 0c8,0 13,6 13,14l0 37c0,7 -5,14 -13,14zm19 180c0,-96 -73,-134 -145,-133 -71,1 -143,35 -143,133 0,98 71,133 143,133 72,0 145,-37 145,-133zm-63 0l0 0c0,55 -44,69 -82,68 -38,-1 -79,-13 -79,-68 0,-54 41,-67 79,-68 38,0 82,14 82,68zm-425 -234l-49 63 9 0c79,0 113,58 115,115 1,60 -32,122 -115,122l-63 0c-7,0 -13,-6 -13,-13l0 -139 -69 87 0 118c0,8 6,14 13,14l132 0c128,0 185,-95 184,-189 -2,-80 -46,-161 -144,-178l0 0 0 0zm-317 234l0 0c0,55 -44,69 -83,68 -38,-1 -78,-13 -78,-68 0,-54 41,-67 78,-68 39,0 83,14 83,68z"/>
  <path class="fil1" d="M2456 568c0,-14 -12,-26 -27,-26l-2233 0c-15,0 -26,12 -26,26l0 435c0,14 11,26 26,26l2233 0c15,0 27,-12 27,-26l0 -435zm-1872 377l0 0 -111 0c-6,0 -11,-5 -11,-12l0 -235c0,-7 -5,-10 -11,-10l-11 0c-6,0 -12,-7 -12,-13l0 -31c0,-7 6,-10 12,-10l144 0c107,0 154,76 156,153 1,79 -47,158 -156,158l0 0 0 0zm457 -271l0 0c0,7 -4,10 -10,10l-153 0c-6,0 -12,6 -12,12l0 55c0,6 6,10 12,10l130 0c6,0 10,6 10,13l0 31c0,6 -4,9 -10,9l-130 0c-6,0 -12,6 -12,12l0 55c0,6 6,10 12,10l153 0c6,0 10,6 10,12l0 30c0,7 -4,12 -10,12l-211 0c-6,0 -11,-5 -11,-12l0 -237c0,-6 -5,-12 -11,-12l-11 0c-6,0 -9,-3 -9,-10l0 -30c0,-7 3,-10 9,-10l244 0c6,0 10,3 10,10l0 30 0 0 0 0zm188 278l0 0c-59,0 -106,-17 -131,-67 -2,-5 0,-12 5,-15l30 -15c5,-2 12,0 15,5 15,27 48,39 83,39 36,0 71,-12 71,-46 0,-30 -31,-42 -72,-47 -64,-7 -122,-24 -122,-94 0,-64 63,-90 120,-90 45,0 91,11 116,50 3,6 2,14 -4,16l-28 15c-5,2 -10,1 -14,-2 -12,-15 -39,-29 -68,-29 -44,0 -65,19 -65,42 0,27 33,35 70,39 65,8 125,25 125,100 0,69 -62,99 -131,99l0 0 0 0zm268 -19l0 0c0,7 -7,12 -13,12l-36 0c-7,0 -12,-5 -12,-12l0 -237c0,-6 -4,-12 -10,-12l-11 0c-6,0 -9,-3 -9,-10l0 -30c0,-7 3,-10 9,-10l69 0c6,0 13,3 13,10l0 289 0 0 0 0zm346 -71l0 0 0 34 0 37c0,6 -6,12 -12,12l-35 0c-4,0 -6,-3 -6,-6l0 -1c0,-2 -2,-3 -4,-2 -20,9 -42,16 -67,16 -118,0 -165,-78 -165,-160 0,-87 55,-169 165,-169 38,0 75,14 106,40 5,4 5,11 1,16l-22 22c-4,4 -10,4 -14,1 -21,-16 -48,-25 -71,-25 -67,0 -107,51 -107,115 0,51 29,105 107,105 22,0 43,-5 66,-22 3,-2 5,-5 5,-8l0 -40c0,-6 -6,-8 -12,-8l-58 0c-6,0 -10,-7 -10,-13l0 -31c0,-6 4,-10 10,-10l111 0c6,0 12,4 12,10l0 87 0 0 0 0zm343 71l0 0c0,7 -7,12 -14,12l-20 0c-3,0 -6,-2 -8,-5l-150 -192c-3,-5 -10,-2 -10,3l0 182c0,7 -5,12 -11,12l-37 0c-6,0 -9,-5 -9,-12l0 -237c0,-6 -7,-12 -13,-12l-10 0c-6,0 -11,-3 -11,-10l0 -30c0,-7 5,-10 11,-10l63 0c3,0 7,1 9,4l139 176c3,5 10,2 10,-3l0 -167c0,-7 5,-10 11,-10l36 0c7,0 14,3 14,10l0 289 0 0 0 0z"/>
  <path class="fil1" d="M584 688l-53 0c-6,0 -11,5 -11,12l0 177c0,6 5,10 11,10l53 0c71,0 99,-52 98,-102 -2,-49 -30,-97 -98,-97z"/>
 </g>
</svg>
