<?xml version="1.0" encoding="UTF-8"?>
<!DOCTYPE svg PUBLIC "-//W3C//DTD SVG 1.1//EN" "http://www.w3.org/Graphics/SVG/1.1/DTD/svg11.dtd">
<!-- Creator: CorelDRAW X7 -->
<svg xmlns="http://www.w3.org/2000/svg" xml:space="preserve" width="499px" height="177px" version="1.1" style="shape-rendering:geometricPrecision; text-rendering:geometricPrecision; image-rendering:optimizeQuality; fill-rule:evenodd; clip-rule:evenodd"
viewBox="0 0 499 177"
 xmlns:xlink="http://www.w3.org/1999/xlink">
 <defs>
  <style type="text/css">
   <![CDATA[
    .fil2 {fill:#2F2929;fill-rule:nonzero}
    .fil0 {fill:#E5395A;fill-rule:nonzero}
    .fil1 {fill:white;fill-rule:nonzero}
   ]]>
  </style>
 </defs>
 <g id="Слой_x0020_1">
  <metadata id="CorelCorpID_0Corel-Layer"/>
  <g id="_2843575491632">
   <path class="fil0" d="M178 171c0,3 3,6 5,6l132 0c3,0 5,-3 5,-6l0 -62c0,-3 -2,-6 -5,-6l-132 0c-2,0 -5,3 -5,6l0 62z"/>
   <g>
    <path class="fil1" d="M231 115l16 0c1,0 2,1 2,2l0 5c0,1 -1,1 -2,1l-1 0c-1,0 -2,1 -2,2l0 18c0,15 -9,22 -21,22 -12,0 -22,-7 -22,-22l0 -18c0,-1 -1,-2 -2,-2l-2 0c-1,0 -1,0 -1,-1l0 -5c0,-1 0,-2 1,-2l16 0c1,0 2,1 2,2l0 5c0,1 -1,1 -2,1l-1 0c-1,0 -2,1 -2,2l0 18c0,9 5,14 13,14 7,0 12,-5 12,-14l0 -18c0,-1 -1,-2 -2,-2l-2 0c-1,0 -1,0 -1,-1l0 -5c0,-1 0,-2 1,-2z"/>
    <path class="fil1" d="M284 116l21 46c0,1 -1,2 -2,2l-6 0c-1,0 -1,0 -2,-1l-3 -7c0,-1 -1,-1 -2,-1l-23 0c-1,0 -1,0 -2,1l-3 7c0,1 -1,1 -1,1l-7 0c-1,0 -2,-1 -1,-2l16 -36c0,-1 -1,-3 -2,-3l-1 0c0,0 -1,0 -1,-1l0 -5c0,-1 1,-2 1,-2l17 0c0,0 1,0 1,1zm-13 30l0 0 16 0c0,0 1,0 0,-1l-7 -18c-1,-1 -2,-1 -2,0l-8 18c0,1 0,1 1,1z"/>
   </g>
  </g>
  <g id="_2843575488240">
   <path class="fil2" d="M125 48c0,-18 -14,-25 -27,-25 -14,0 -27,6 -27,25 0,18 13,25 27,25 13,0 27,-7 27,-25zm-12 0l0 0c0,10 -8,13 -15,12 -8,0 -15,-2 -15,-12 0,-11 7,-13 15,-13 7,0 15,2 15,13z"/>
   <path class="fil2" d="M173 4l-9 11 2 0c15,0 21,11 22,22 0,11 -6,23 -22,23l-12 0c-1,0 -3,-1 -3,-2l0 -26 -13 16 0 22c0,2 2,3 3,3l25 0c24,0 35,-18 35,-36 -1,-15 -9,-30 -28,-33z"/>
   <path class="fil2" d="M266 48c0,-18 -14,-25 -27,-25 -14,0 -28,6 -28,25 0,18 14,25 28,25 13,0 27,-7 27,-25zm-12 0l0 0c0,10 -8,13 -15,12 -8,0 -15,-2 -15,-12 0,-11 7,-13 15,-13 7,0 15,2 15,13z"/>
   <path class="fil2" d="M263 14l-48 0c-1,0 -2,-1 -2,-3l0 -7c0,-1 1,-2 2,-2l48 0c1,0 2,1 2,2l0 7c0,2 -1,3 -2,3z"/>
   <path class="fil2" d="M122 14l-48 0c-1,0 -2,-1 -2,-3l0 -7c0,-1 1,-2 2,-2l48 0c1,0 2,1 2,2l0 7c0,2 -1,3 -2,3z"/>
   <path class="fil2" d="M365 30c-9,-1 -16,-3 -16,-9 0,-5 5,-9 15,-9 6,0 12,3 15,6 1,1 2,1 3,1l6 -4c2,0 2,-2 1,-3 -6,-9 -16,-12 -26,-12 -13,1 -27,6 -27,21 0,15 13,19 28,21 9,1 16,4 16,10 0,8 -8,11 -16,11 -8,0 -15,-3 -19,-9 -1,-1 -2,-2 -3,-1l-7 3c-1,1 -2,2 -1,3 6,12 16,15 29,15 16,0 30,-6 30,-22 0,-17 -14,-20 -28,-22z"/>
   <path class="fil2" d="M462 61l-3 0c0,0 -1,0 -1,-1l-24 -23c-1,-1 -1,-2 0,-3l27 -27c2,-1 1,-4 -2,-4l-11 0c-1,0 -2,0 -2,1l-27 26c-1,1 -2,1 -2,-1l0 -24c0,-1 -1,-2 -2,-2l-16 0c-1,0 -2,1 -2,2l0 7c0,2 1,3 2,3l2 0c2,0 3,1 3,2l0 53c0,2 1,3 2,3l9 0c1,0 2,-1 2,-3l0 -18c0,-1 0,-1 1,-2l4 -4c1,-1 2,-1 3,0l26 26c0,1 1,1 2,1l9 0c1,0 2,-1 2,-3l0 -7c0,-1 -1,-2 -2,-2z"/>
   <path class="fil2" d="M35 3l-9 12 6 0c17,0 17,25 0,25l-17 0c-1,0 -2,-1 -2,-2l0 -7 -13 17 0 22c0,2 1,3 2,3l8 0c2,0 3,-1 3,-3l0 -16c0,-1 1,-2 2,-2l17 0c34,0 35,-46 3,-49z"/>
   <path class="fil2" d="M326 56l-7 0c-1,0 -3,1 -3,2l0 3 -21 0c-1,0 -3,-2 -3,-3l0 -53c0,-1 -1,-2 -2,-2l-16 0c-1,0 -2,1 -2,2l0 7c0,2 1,3 2,3l3 0c1,0 2,1 2,2l0 53c0,2 1,3 3,3l44 0c1,0 2,-1 2,-3l0 -7 0 0 0 -5c0,-1 -1,-2 -2,-2z"/>
   <path class="fil2" d="M496 61l-2 0c-1,0 -2,-1 -2,-3l0 -53c0,-1 -2,-2 -3,-2l-15 0c-2,0 -3,1 -3,2l0 7c0,2 1,3 3,3l2 0c1,0 3,1 3,2l0 53c0,2 1,3 2,3l6 0 2 0 3 0 4 0c2,0 3,-1 3,-3l0 -7c0,-1 -1,-2 -3,-2z"/>
  </g>
 </g>
</svg>
