<?xml version="1.0" encoding="UTF-8"?>
<!DOCTYPE svg PUBLIC "-//W3C//DTD SVG 1.1//EN" "http://www.w3.org/Graphics/SVG/1.1/DTD/svg11.dtd">
<!-- Creator: CorelDRAW X7 -->
<svg xmlns="http://www.w3.org/2000/svg" xml:space="preserve" width="86.0212mm" height="169.164mm" version="1.1" style="shape-rendering:geometricPrecision; text-rendering:geometricPrecision; image-rendering:optimizeQuality; fill-rule:evenodd; clip-rule:evenodd"
viewBox="0 0 8602 16916"
 xmlns:xlink="http://www.w3.org/1999/xlink">
 <defs>
  <style type="text/css">
   <![CDATA[
    .fil6 {fill:#1F1E1E}
    .fil0 {fill:#260326}
    .fil9 {fill:#450124}
    .fil1 {fill:#660033}
    .fil7 {fill:#820242}
    .fil2 {fill:#963030}
    .fil4 {fill:#A33838}
    .fil10 {fill:#B03D3D}
    .fil5 {fill:#DB4141}
    .fil3 {fill:#FEFEFE}
    .fil8 {fill:#B03D3D;fill-rule:nonzero}
   ]]>
  </style>
 </defs>
 <g id="Слой_x0020_1">
  <metadata id="CorelCorpID_0Corel-Layer"/>
  <path class="fil0" d="M2601 16916c-143,0 -259,-116 -259,-259 0,-143 116,-259 259,-259 143,0 259,116 259,259 0,-143 116,-259 259,-259 143,0 259,116 259,259 0,-143 116,-259 259,-259 143,0 259,116 259,259 0,143 -116,259 -259,259 -143,0 -259,-116 -259,-259 0,143 -116,259 -259,259 -143,0 -259,-116 -259,-259 0,143 -116,259 -259,259zm2364 0c-143,0 -259,-116 -259,-259 0,-143 116,-259 259,-259 143,0 259,116 259,259 0,-143 116,-259 259,-259 143,0 259,116 259,259 0,-143 116,-259 259,-259 143,0 259,116 259,259 0,143 -116,259 -259,259 -143,0 -259,-116 -259,-259 0,143 -116,259 -259,259 -143,0 -259,-116 -259,-259 0,143 -116,259 -259,259z"/>
  <path class="fil1" d="M631 8589c-374,196 -631,589 -631,1038l0 5218c0,644 527,1171 1171,1171l0 0c644,0 1171,-527 1171,-1171l0 1812 1554 0 0 -1418c127,44 263,68 405,68l0 0c142,0 278,-24 405,-68l0 1418 1554 0 0 -1812c0,644 527,1171 1171,1171l0 0c644,0 1171,-527 1171,-1171l0 -5218c0,-449 -257,-842 -631,-1038l0 0c0,0 -157,-102 -157,-386l0 -3895 0 -387c0,-1095 -508,-2077 -1301,-2723 78,-121 124,-265 124,-420 0,-430 -349,-778 -778,-778 -335,0 -620,211 -730,508 -266,-65 -543,-100 -828,-100l0 0c-287,0 -566,36 -833,101 -110,-297 -395,-509 -731,-509 -429,0 -778,348 -778,778 0,156 46,302 126,423 -790,646 -1297,1627 -1297,2720l0 387 0 3895c0,284 -157,386 -157,386l0 0 0 0 0 0z"/>
  <path class="fil2" d="M5847 4573l0 925c0,850 -696,1545 -1546,1545l0 0c-850,0 -1546,-695 -1546,-1545l0 -925 0 -12c0,-850 696,-1546 1546,-1546l0 0c850,0 1546,696 1546,1546l0 12z"/>
  <path class="fil3" d="M3802 2896c-230,-30 -406,-226 -406,-464 0,-259 209,-468 468,-468 199,0 369,124 437,299 68,-175 238,-299 437,-299 259,0 468,209 468,468 0,259 -209,468 -468,468l0 0c-9,251 -215,451 -468,451 -254,0 -461,-202 -468,-455z"/>
  <path class="fil4" d="M5847 4308l0 925c0,850 -696,1545 -1546,1545l0 0c-850,0 -1546,-695 -1546,-1545l0 -925 0 -12c0,-850 696,-1546 1546,-1546l0 0c850,0 1546,696 1546,1546l0 12z"/>
  <path class="fil0" d="M5013 4308c58,110 91,236 91,369l0 487c0,168 -52,325 -142,454 -145,210 -388,84 -661,84l0 0c-273,0 -515,126 -661,-84 -89,-129 -142,-286 -142,-454l0 -487c0,-133 33,-259 91,-369 134,-257 403,-434 712,-434l0 0c309,0 578,177 712,434z"/>
  <path class="fil5" d="M4962 5618c-145,210 -387,348 -661,348l0 0c-273,0 -515,-138 -661,-348 183,-57 412,-92 661,-92 249,0 478,35 661,92z"/>
  <path class="fil4" d="M4301 14193c-1531,0 -2773,-1242 -2773,-2773 0,-1532 1242,-2773 2773,-2773 1532,0 2773,1241 2773,2773 0,1531 -1241,2773 -2773,2773z"/>
  <path class="fil4" d="M5478 613c64,-147 210,-250 381,-250 229,0 415,186 415,415 0,75 -20,144 -54,205 -231,-151 -479,-276 -742,-370l0 0 0 0z"/>
  <path class="fil0" d="M4113 2750l410 0c187,0 340,153 340,340l0 0c0,187 -153,340 -340,340l-410 0c-187,0 -340,-153 -340,-340l0 0c0,-187 153,-340 340,-340z"/>
  <path class="fil6" d="M4144 2505c-41,0 -74,-34 -74,-74 0,-41 33,-75 74,-75 41,0 74,34 74,75 0,40 -33,74 -74,74z"/>
  <path class="fil6" d="M4458 2505c-41,0 -74,-34 -74,-74 0,-41 33,-75 74,-75 41,0 74,34 74,75 0,40 -33,74 -74,74z"/>
  <path class="fil4" d="M2378 986c-35,-61 -56,-132 -56,-208 0,-229 186,-415 415,-415 171,0 318,104 382,252 -263,94 -511,219 -741,371l0 0 0 0z"/>
  <path class="fil7" d="M1315 6007l0 0c84,0 152,68 152,152l0 1164c0,84 -68,152 -152,152l0 0c-84,0 -152,-68 -152,-152l0 -1164c0,-84 68,-152 152,-152z"/>
  <path class="fil8" d="M4301 9522c-75,0 -135,-61 -135,-136 0,-74 60,-135 135,-135 599,0 1141,243 1534,635 392,393 635,935 635,1534 0,599 -243,1142 -635,1534 -393,393 -935,635 -1534,635 -322,0 -636,-72 -922,-206 -286,-134 -542,-330 -747,-578 -48,-58 -40,-143 18,-191 57,-47 142,-39 190,18 181,218 405,390 654,507 249,117 524,179 807,179 524,0 999,-212 1342,-555 344,-344 556,-819 556,-1343 0,-524 -212,-999 -556,-1342 -343,-344 -818,-556 -1342,-556z"/>
  <path class="fil8" d="M3118 9603c62,-41 146,-23 186,40 41,62 23,146 -39,186 -269,175 -485,412 -633,686l0 1c-148,273 -229,583 -229,904 0,75 -61,136 -136,136 -74,0 -135,-61 -135,-136 0,-366 93,-721 262,-1034l0 1c170,-313 416,-584 724,-784z"/>
  <path class="fil9" d="M3907 917l1 0c44,0 79,35 79,79l0 212c0,44 -35,79 -79,79l-1 0c-44,0 -79,-35 -79,-79l0 -212c0,-44 35,-79 79,-79z"/>
  <path class="fil9" d="M793 15790l0 0c43,0 79,35 79,79l0 294c0,44 -36,80 -79,80l0 0c-44,0 -80,-36 -80,-80l0 -294c0,-44 36,-79 80,-79zm756 0l0 0c44,0 80,35 80,79l0 294c0,44 -36,80 -80,80l0 0c-43,0 -79,-36 -79,-80l0 -294c0,-44 36,-79 79,-79zm-378 0l0 0c44,0 79,35 79,79l0 294c0,44 -35,80 -79,80l0 0c-44,0 -79,-36 -79,-80l0 -294c0,-44 35,-79 79,-79z"/>
  <path class="fil9" d="M7053 15790l0 0c43,0 79,35 79,79l0 294c0,44 -36,80 -79,80l0 0c-44,0 -80,-36 -80,-80l0 -294c0,-44 36,-79 80,-79zm756 0l0 0c44,0 80,35 80,79l0 294c0,44 -36,80 -80,80l0 0c-43,0 -79,-36 -79,-80l0 -294c0,-44 36,-79 79,-79zm-378 0l0 0c44,0 79,35 79,79l0 294c0,44 -35,80 -79,80l0 0c-44,0 -79,-36 -79,-80l0 -294c0,-44 35,-79 79,-79z"/>
  <rect class="fil9" x="4616" y="848" width="158" height="394" rx="79" ry="79"/>
  <rect class="fil9" x="4239" y="1354" width="158" height="240" rx="79" ry="79"/>
  <rect class="fil7" x="1163" y="5033" width="304" height="569" rx="152" ry="152"/>
  <rect class="fil7" x="7172" y="4391" width="304" height="853" rx="152" ry="152"/>
  <path class="fil10" d="M4301 12453c-570,0 -1033,-462 -1033,-1033 0,-571 463,-1033 1033,-1033 571,0 1033,462 1033,1033 0,571 -462,1033 -1033,1033z"/>
 </g>
</svg>
