<?xml version="1.0" encoding="UTF-8"?>
<!DOCTYPE svg PUBLIC "-//W3C//DTD SVG 1.1//EN" "http://www.w3.org/Graphics/SVG/1.1/DTD/svg11.dtd">
<!-- Creator: CorelDRAW X7 -->
<svg xmlns="http://www.w3.org/2000/svg" xml:space="preserve" width="86.0212mm" height="169.164mm" version="1.1" style="shape-rendering:geometricPrecision; text-rendering:geometricPrecision; image-rendering:optimizeQuality; fill-rule:evenodd; clip-rule:evenodd"
viewBox="0 0 8602 16916"
 xmlns:xlink="http://www.w3.org/1999/xlink">
 <defs>
  <style type="text/css">
   <![CDATA[
    .fil9 {fill:#2E2D2D}
    .fil7 {fill:#434242}
    .fil11 {fill:#5E3D32}
    .fil4 {fill:#664337}
    .fil1 {fill:#7D5244}
    .fil2 {fill:#B57966}
    .fil15 {fill:#E69112}
    .fil12 {fill:#F7D351}
    .fil8 {fill:#FA4646}
    .fil5 {fill:#FC4961}
    .fil10 {fill:#FC6565}
    .fil6 {fill:#FEFEFE}
    .fil3 {fill:#FFA51E}
    .fil13 {fill:#FFE37D}
    .fil0 {fill:#7D5244;fill-rule:nonzero}
    .fil14 {fill:#E69112;fill-rule:nonzero}
   ]]>
  </style>
 </defs>
 <g id="Слой_x0020_1">
  <metadata id="CorelCorpID_0Corel-Layer"/>
  <path class="fil0" d="M847 392c-64,-137 -4,-302 133,-366 138,-64 302,-5 367,133l593 1268c7,12 12,25 17,38l217 463 554 -813c86,-126 258,-159 384,-73 126,86 159,258 73,384l-739 1083 408 873c5,9 9,19 13,28l663 1419c65,138 5,302 -132,366 -138,65 -302,5 -367,-133l-600 -1283 -1500 -82c-153,-8 -269,-139 -261,-291 9,-152 139,-269 291,-260l1205 66 -279 -596c-5,-10 -10,-21 -14,-31l-355 -759 -1263 -96c-138,-11 -245,-121 -255,-255l0 -42c11,-152 144,-266 296,-255l953 73 -402 -859 0 0 0 0z"/>
  <path class="fil1" d="M2562 5260c0,0 -675,-980 -2015,-958 -1340,22 44,2222 1340,2244 1296,22 675,-1286 675,-1286z"/>
  <path class="fil2" d="M1277 4873c-203,-77 -509,-167 -703,-103 -299,100 649,1266 1282,1093 23,-7 48,-12 69,-25 429,-287 -370,-859 -648,-965l0 0 0 0z"/>
  <path class="fil0" d="M7743 392c65,-137 5,-302 -133,-366 -138,-64 -302,-5 -366,133l-593 1268c-7,12 -13,25 -18,38l-216 463 -555 -813c-85,-126 -257,-159 -383,-73 -126,86 -159,258 -73,384l739 1083 -408 873c-5,9 -9,19 -13,28l-664 1419c-64,138 -5,302 133,366 138,65 302,5 367,-133l600 -1283 1500 -82c152,-8 269,-139 261,-291 -9,-152 -139,-269 -291,-260l-1205 66 279 -596c5,-10 10,-21 14,-31l355 -759 1263 -96c152,-12 266,-144 255,-297 -11,-152 -144,-266 -296,-255l-953 73 401 -859 0 0 0 0z"/>
  <path class="fil1" d="M6040 5260c0,0 675,-980 2015,-958 1340,22 -44,2222 -1340,2244 -1296,22 -675,-1286 -675,-1286z"/>
  <path class="fil2" d="M7325 4873c203,-77 509,-167 703,-103 299,100 -649,1266 -1282,1093 -23,-7 -48,-12 -69,-25 -429,-287 370,-859 648,-965l0 0 0 0z"/>
  <path class="fil3" d="M4301 4042c1228,0 2233,1004 2233,2232l0 3919c4,66 55,140 63,151 580,651 1391,1123 1391,6374l-3687 0 -3687 0c0,-5248 810,-5723 1391,-6373 4,-6 64,-89 64,-161l0 -3910c0,-1228 1004,-2232 2232,-2232z"/>
  <path class="fil4" d="M4301 5125l1 0c1009,0 1828,887 1828,1981l0 1014c0,1094 -819,1981 -1828,1981l-1 0c-1009,0 -1828,-887 -1828,-1981l0 -1014c0,-1094 819,-1981 1828,-1981z"/>
  <path class="fil1" d="M4301 4860l1 0c1009,0 1828,887 1828,1981l0 1014c0,1094 -819,1981 -1828,1981l-1 0c-1009,0 -1828,-887 -1828,-1981l0 -1014c0,-1094 819,-1981 1828,-1981z"/>
  <ellipse class="fil5" cx="4301" cy="7717" rx="746" ry="674"/>
  <ellipse class="fil6" cx="4301" cy="7320" rx="286" ry="136"/>
  <circle class="fil6" cx="3508" cy="6391" r="641"/>
  <circle class="fil7" cx="3508" cy="6391" r="304"/>
  <circle class="fil6" cx="5094" cy="6391" r="641"/>
  <circle class="fil7" cx="5094" cy="6391" r="304"/>
  <path class="fil8" d="M4068 4875c16,124 124,279 233,282 109,-3 217,-158 233,-282 28,-210 -494,-210 -466,0l0 0 0 0z"/>
  <path class="fil8" d="M5885 4108c108,-597 -375,-575 -375,-575 89,-179 -191,-435 -463,-359 -148,42 -276,131 -276,131 10,-74 -291,-216 -385,46 -117,331 -85,1116 -85,1116 0,0 247,-456 709,-386 462,71 685,429 875,27l0 0 0 0z"/>
  <path class="fil9" d="M3464 4514l0 0c30,-30 86,-24 124,14l31 31c38,38 44,94 14,124l0 0c-31,31 -86,25 -125,-13l-30 -31c-39,-38 -45,-94 -14,-125z"/>
  <path class="fil9" d="M5141 4514l0 0c-31,-30 -86,-24 -125,14l-30 31c-39,38 -45,94 -14,124l0 0c30,31 86,25 124,-13l31 -31c38,-38 44,-94 14,-125z"/>
  <path class="fil3" d="M575 16432l7452 0c133,0 242,109 242,242l0 0c0,133 -109,242 -242,242l-2162 0 -343 -261 -1392 31 -928 -39 -465 269 -2146 0c-133,0 -258,-109 -258,-242l0 0c0,-133 109,-242 242,-242z"/>
  <path class="fil10" d="M5881 4152c108,-524 -373,-505 -373,-505 89,-157 -190,-382 -461,-315 -147,37 -274,115 -274,115 9,-65 -290,-190 -384,40 -116,291 -84,980 -84,980 0,0 246,-400 705,-339 460,63 682,377 871,24l0 0 0 0z"/>
  <path class="fil11" d="M4097 8872l409 0c32,0 57,42 57,93l0 0c0,51 -25,92 -57,92l-409 0c-31,0 -57,-41 -57,-92l0 0c0,-51 26,-93 57,-93z"/>
  <path class="fil12" d="M2737 16916l3128 0 0 -3971c0,-873 -704,-1588 -1564,-1588l0 0c-860,0 -1564,715 -1564,1588l0 3971z"/>
  <path class="fil13" d="M3173 13791l1 0c73,0 132,59 132,132l0 808c0,73 -59,132 -132,132l-1 0c-73,0 -132,-59 -132,-132l0 -808c0,-73 59,-132 132,-132z"/>
  <path class="fil14" d="M6197 14274l0 -1375c0,-521 -213,-995 -557,-1339 -344,-344 -818,-557 -1339,-557 -521,0 -995,214 -1339,557 -344,344 -557,818 -557,1339l0 1375c0,79 -64,142 -142,142 -79,0 -142,-63 -142,-142l0 -1375c0,-600 245,-1145 640,-1540 395,-395 940,-640 1540,-640 600,0 1145,245 1540,640 395,395 640,940 640,1540l0 1375c0,79 -63,142 -142,142 -78,0 -142,-63 -142,-142z"/>
  <path class="fil15" d="M2263 14760l0 0c78,0 142,64 142,142l0 319c0,79 -64,142 -142,142l0 0c-78,0 -142,-63 -142,-142l0 -319c0,-78 64,-142 142,-142z"/>
  <rect class="fil15" x="6197" y="15110" width="284" height="799" rx="142" ry="142"/>
  <rect class="fil13" x="5303" y="13202" width="263" height="440" rx="132" ry="132"/>
 </g>
</svg>
